<mxfile host="app.diagrams.net" agent="Mozilla/5.0 (Windows NT 10.0; Win64; x64) AppleWebKit/537.36 (KHTML, like Gecko) Chrome/138.0.0.0 Safari/537.36" version="28.0.7">
  <diagram name="Page-1" id="Vf2joYRSEPQUoAwm5k4P">
    <mxGraphModel dx="872" dy="465" grid="1" gridSize="10" guides="1" tooltips="1" connect="1" arrows="1" fold="1" page="1" pageScale="1" pageWidth="827" pageHeight="1169" background="#ffffff" math="0" shadow="0">
      <root>
        <mxCell id="0" />
        <mxCell id="1" parent="0" />
        <mxCell id="zgOpSGmhassG2V-QvH2m-27" style="edgeStyle=orthogonalEdgeStyle;rounded=0;orthogonalLoop=1;jettySize=auto;html=1;entryX=0.5;entryY=0;entryDx=0;entryDy=0;" parent="1" source="zgOpSGmhassG2V-QvH2m-1" target="zgOpSGmhassG2V-QvH2m-2" edge="1">
          <mxGeometry relative="1" as="geometry">
            <Array as="points">
              <mxPoint x="411" y="140" />
              <mxPoint x="411" y="140" />
            </Array>
          </mxGeometry>
        </mxCell>
        <mxCell id="zgOpSGmhassG2V-QvH2m-1" value="START" style="ellipse;whiteSpace=wrap;html=1;fillColor=#60a917;fontColor=#ffffff;strokeColor=#2D7600;" parent="1" vertex="1">
          <mxGeometry x="351" y="50" width="120" height="80" as="geometry" />
        </mxCell>
        <mxCell id="zgOpSGmhassG2V-QvH2m-24" style="edgeStyle=orthogonalEdgeStyle;rounded=0;orthogonalLoop=1;jettySize=auto;html=1;entryX=0.5;entryY=0;entryDx=0;entryDy=0;" parent="1" source="zgOpSGmhassG2V-QvH2m-2" target="zgOpSGmhassG2V-QvH2m-5" edge="1">
          <mxGeometry relative="1" as="geometry" />
        </mxCell>
        <mxCell id="zgOpSGmhassG2V-QvH2m-25" style="edgeStyle=orthogonalEdgeStyle;rounded=0;orthogonalLoop=1;jettySize=auto;html=1;exitX=1;exitY=0.5;exitDx=0;exitDy=0;entryX=0;entryY=0.5;entryDx=0;entryDy=0;" parent="1" source="zgOpSGmhassG2V-QvH2m-2" target="zgOpSGmhassG2V-QvH2m-3" edge="1">
          <mxGeometry relative="1" as="geometry" />
        </mxCell>
        <mxCell id="zgOpSGmhassG2V-QvH2m-2" value="UPLOAD SBOM" style="rounded=0;whiteSpace=wrap;html=1;fillColor=#1ba1e2;fontColor=#ffffff;strokeColor=#006EAF;" parent="1" vertex="1">
          <mxGeometry x="351" y="180" width="120" height="60" as="geometry" />
        </mxCell>
        <mxCell id="zgOpSGmhassG2V-QvH2m-26" style="edgeStyle=orthogonalEdgeStyle;rounded=0;orthogonalLoop=1;jettySize=auto;html=1;exitX=1;exitY=0.5;exitDx=0;exitDy=0;entryX=0;entryY=0.5;entryDx=0;entryDy=0;" parent="1" source="zgOpSGmhassG2V-QvH2m-3" target="zgOpSGmhassG2V-QvH2m-4" edge="1">
          <mxGeometry relative="1" as="geometry" />
        </mxCell>
        <mxCell id="zgOpSGmhassG2V-QvH2m-3" value="PARSE SBOM" style="rounded=0;whiteSpace=wrap;html=1;fillColor=#1ba1e2;fontColor=#ffffff;strokeColor=#006EAF;" parent="1" vertex="1">
          <mxGeometry x="520" y="180" width="120" height="60" as="geometry" />
        </mxCell>
        <mxCell id="zgOpSGmhassG2V-QvH2m-4" value="DISPLAY COMPONENTS" style="rounded=0;whiteSpace=wrap;html=1;fillColor=#1ba1e2;fontColor=#ffffff;strokeColor=#006EAF;" parent="1" vertex="1">
          <mxGeometry x="680" y="180" width="120" height="60" as="geometry" />
        </mxCell>
        <mxCell id="zgOpSGmhassG2V-QvH2m-29" style="edgeStyle=orthogonalEdgeStyle;rounded=0;orthogonalLoop=1;jettySize=auto;html=1;exitX=0.5;exitY=1;exitDx=0;exitDy=0;entryX=0.5;entryY=0;entryDx=0;entryDy=0;" parent="1" source="zgOpSGmhassG2V-QvH2m-5" target="zgOpSGmhassG2V-QvH2m-28" edge="1">
          <mxGeometry relative="1" as="geometry" />
        </mxCell>
        <mxCell id="zgOpSGmhassG2V-QvH2m-5" value="UPLOAD PRODUCT INFO &lt;i&gt;(OPTIONAL)&lt;/i&gt;" style="rounded=0;whiteSpace=wrap;html=1;fillColor=#1ba1e2;fontColor=#ffffff;strokeColor=#006EAF;" parent="1" vertex="1">
          <mxGeometry x="351" y="280" width="120" height="60" as="geometry" />
        </mxCell>
        <mxCell id="zgOpSGmhassG2V-QvH2m-8" style="edgeStyle=orthogonalEdgeStyle;rounded=0;orthogonalLoop=1;jettySize=auto;html=1;exitX=0;exitY=0.5;exitDx=0;exitDy=0;" parent="1" source="zgOpSGmhassG2V-QvH2m-7" edge="1">
          <mxGeometry relative="1" as="geometry">
            <mxPoint x="311" y="600" as="targetPoint" />
          </mxGeometry>
        </mxCell>
        <mxCell id="zgOpSGmhassG2V-QvH2m-9" style="edgeStyle=orthogonalEdgeStyle;rounded=0;orthogonalLoop=1;jettySize=auto;html=1;" parent="1" source="zgOpSGmhassG2V-QvH2m-7" edge="1">
          <mxGeometry relative="1" as="geometry">
            <mxPoint x="511" y="600" as="targetPoint" />
          </mxGeometry>
        </mxCell>
        <mxCell id="zgOpSGmhassG2V-QvH2m-7" value="&amp;nbsp;CVE SCAN" style="rhombus;whiteSpace=wrap;html=1;fillColor=#6a00ff;fontColor=#ffffff;strokeColor=#3700CC;" parent="1" vertex="1">
          <mxGeometry x="365" y="470" width="86" height="80" as="geometry" />
        </mxCell>
        <mxCell id="zgOpSGmhassG2V-QvH2m-10" value="online" style="text;html=1;align=center;verticalAlign=middle;resizable=0;points=[];autosize=1;strokeColor=none;fillColor=none;" parent="1" vertex="1">
          <mxGeometry x="291" y="478" width="60" height="30" as="geometry" />
        </mxCell>
        <mxCell id="zgOpSGmhassG2V-QvH2m-11" value="offline" style="text;html=1;align=center;verticalAlign=middle;resizable=0;points=[];autosize=1;strokeColor=none;fillColor=none;" parent="1" vertex="1">
          <mxGeometry x="465" y="478" width="60" height="30" as="geometry" />
        </mxCell>
        <mxCell id="zgOpSGmhassG2V-QvH2m-17" style="edgeStyle=orthogonalEdgeStyle;rounded=0;orthogonalLoop=1;jettySize=auto;html=1;exitX=0.5;exitY=1;exitDx=0;exitDy=0;" parent="1" source="zgOpSGmhassG2V-QvH2m-12" target="zgOpSGmhassG2V-QvH2m-14" edge="1">
          <mxGeometry relative="1" as="geometry">
            <Array as="points">
              <mxPoint x="311" y="680" />
              <mxPoint x="397" y="680" />
            </Array>
          </mxGeometry>
        </mxCell>
        <mxCell id="zgOpSGmhassG2V-QvH2m-12" value="USING NVD API" style="rounded=0;whiteSpace=wrap;html=1;fillColor=#1ba1e2;fontColor=#ffffff;strokeColor=#006EAF;" parent="1" vertex="1">
          <mxGeometry x="251" y="600" width="120" height="60" as="geometry" />
        </mxCell>
        <mxCell id="zgOpSGmhassG2V-QvH2m-18" style="edgeStyle=orthogonalEdgeStyle;rounded=0;orthogonalLoop=1;jettySize=auto;html=1;exitX=0.5;exitY=1;exitDx=0;exitDy=0;" parent="1" source="zgOpSGmhassG2V-QvH2m-13" edge="1">
          <mxGeometry relative="1" as="geometry">
            <mxPoint x="417" y="700" as="targetPoint" />
          </mxGeometry>
        </mxCell>
        <mxCell id="zgOpSGmhassG2V-QvH2m-13" value="USING LOCAL JSON FILES" style="rounded=0;whiteSpace=wrap;html=1;fillColor=#1ba1e2;fontColor=#ffffff;strokeColor=#006EAF;" parent="1" vertex="1">
          <mxGeometry x="451" y="600" width="120" height="60" as="geometry" />
        </mxCell>
        <mxCell id="zgOpSGmhassG2V-QvH2m-21" style="edgeStyle=orthogonalEdgeStyle;rounded=0;orthogonalLoop=1;jettySize=auto;html=1;exitX=0.5;exitY=1;exitDx=0;exitDy=0;entryX=0.5;entryY=0;entryDx=0;entryDy=0;" parent="1" source="zgOpSGmhassG2V-QvH2m-14" target="zgOpSGmhassG2V-QvH2m-15" edge="1">
          <mxGeometry relative="1" as="geometry" />
        </mxCell>
        <mxCell id="zgOpSGmhassG2V-QvH2m-14" value="CALCULATE CRA SCORE" style="rounded=0;whiteSpace=wrap;html=1;fillColor=#1ba1e2;fontColor=#ffffff;strokeColor=#006EAF;" parent="1" vertex="1">
          <mxGeometry x="348" y="700" width="120" height="60" as="geometry" />
        </mxCell>
        <mxCell id="zgOpSGmhassG2V-QvH2m-22" style="edgeStyle=orthogonalEdgeStyle;rounded=0;orthogonalLoop=1;jettySize=auto;html=1;exitX=0.5;exitY=1;exitDx=0;exitDy=0;entryX=0.5;entryY=0;entryDx=0;entryDy=0;" parent="1" source="zgOpSGmhassG2V-QvH2m-15" target="zgOpSGmhassG2V-QvH2m-16" edge="1">
          <mxGeometry relative="1" as="geometry" />
        </mxCell>
        <mxCell id="zgOpSGmhassG2V-QvH2m-15" value="GENERATE PDF REPORT" style="rounded=0;whiteSpace=wrap;html=1;fillColor=#1ba1e2;fontColor=#ffffff;strokeColor=#006EAF;" parent="1" vertex="1">
          <mxGeometry x="348" y="810" width="120" height="60" as="geometry" />
        </mxCell>
        <mxCell id="zgOpSGmhassG2V-QvH2m-16" value="END" style="ellipse;whiteSpace=wrap;html=1;fillColor=#60a917;fontColor=#ffffff;strokeColor=#2D7600;" parent="1" vertex="1">
          <mxGeometry x="348" y="910" width="120" height="80" as="geometry" />
        </mxCell>
        <mxCell id="zgOpSGmhassG2V-QvH2m-30" style="edgeStyle=orthogonalEdgeStyle;rounded=0;orthogonalLoop=1;jettySize=auto;html=1;exitX=0.5;exitY=1;exitDx=0;exitDy=0;entryX=0.5;entryY=0;entryDx=0;entryDy=0;" parent="1" source="zgOpSGmhassG2V-QvH2m-28" target="zgOpSGmhassG2V-QvH2m-7" edge="1">
          <mxGeometry relative="1" as="geometry" />
        </mxCell>
        <mxCell id="zgOpSGmhassG2V-QvH2m-28" value="COMPARE PRODUCTS &amp;amp; VERSIONS (&lt;i&gt;OPTIONAL&lt;/i&gt;)" style="rounded=0;whiteSpace=wrap;html=1;fillColor=#1ba1e2;fontColor=#ffffff;strokeColor=#006EAF;" parent="1" vertex="1">
          <mxGeometry x="351" y="380" width="120" height="60" as="geometry" />
        </mxCell>
      </root>
    </mxGraphModel>
  </diagram>
</mxfile>
